<?xml version="1.0" encoding="UTF-8" standalone="no"?>
<!-- Created with Inkscape (http://www.inkscape.org/) -->

<svg
   xmlns:dc="http://purl.org/dc/elements/1.1/"
   xmlns:cc="http://creativecommons.org/ns#"
   xmlns:rdf="http://www.w3.org/1999/02/22-rdf-syntax-ns#"
   xmlns:svg="http://www.w3.org/2000/svg"
   xmlns="http://www.w3.org/2000/svg"
   xmlns:xlink="http://www.w3.org/1999/xlink"
   xmlns:sodipodi="http://sodipodi.sourceforge.net/DTD/sodipodi-0.dtd"
   xmlns:inkscape="http://www.inkscape.org/namespaces/inkscape"
   id="svg3020"
   version="1.1"
   inkscape:version="0.48.4 r9939"
   width="600"
   height="300"
   xml:space="preserve"
   sodipodi:docname="Logo_Fablab_Torino_cutout_text (1).svg"><metadata
     id="metadata3026"><rdf:RDF><cc:Work
         rdf:about=""><dc:format>image/svg+xml</dc:format><dc:type
           rdf:resource="http://purl.org/dc/dcmitype/StillImage" /><dc:title></dc:title></cc:Work></rdf:RDF></metadata><defs
     id="defs3024"><clipPath
       clipPathUnits="userSpaceOnUse"
       id="clipPath3038"><path
         d="m 0,495.05 1399.855,0 0,-495.05 L 0,0 0,495.05 z"
         id="path3040"
         inkscape:connector-curvature="0" /></clipPath><clipPath
       clipPathUnits="userSpaceOnUse"
       id="clipPath3046"><path
         d="m 157.912,174.558 81.496,0 0,-22.628 -81.496,0 0,22.628 z"
         id="path3048"
         inkscape:connector-curvature="0" /></clipPath><clipPath
       clipPathUnits="userSpaceOnUse"
       id="clipPath3050"><path
         d="m 239.408,163.241 c 0,-6.245 -18.24,-11.311 -40.746,-11.311 -22.508,0 -40.75,5.066 -40.75,11.311 0,6.253 18.242,11.317 40.75,11.317 22.506,0 40.746,-5.064 40.746,-11.317"
         id="path3052"
         inkscape:connector-curvature="0" /></clipPath><clipPath
       clipPathUnits="userSpaceOnUse"
       id="clipPath3054"><path
         d="m -32768,32767 65535,0 0,-65535 -65535,0 0,65535 z"
         id="path3056"
         inkscape:connector-curvature="0" /></clipPath><radialGradient
       fx="0"
       fy="0"
       cx="0"
       cy="0"
       r="1"
       gradientUnits="userSpaceOnUse"
       gradientTransform="matrix(40.746582,0,0,-11.314162,198.66016,163.24316)"
       spreadMethod="pad"
       id="radialGradient3058"><stop
         style="stop-opacity:1;stop-color:#ffffff"
         offset="0"
         id="stop3060" /><stop
         style="stop-opacity:0;stop-color:#ffffff"
         offset="1"
         id="stop3062" /></radialGradient><mask
       maskUnits="userSpaceOnUse"
       x="0"
       y="0"
       width="1"
       height="1"
       id="mask3064"><g
         id="g3066"><g
           clip-path="url(#clipPath3054)"
           id="g3068"><g
             id="g3070"><g
               id="g3072"><path
                 d="m -32768,32767 65535,0 0,-65535 -65535,0 0,65535 z"
                 style="fill:url(#radialGradient3058);stroke:none"
                 id="path3074"
                 inkscape:connector-curvature="0" /></g></g></g></g></mask><radialGradient
       fx="0"
       fy="0"
       cx="0"
       cy="0"
       r="1"
       gradientUnits="userSpaceOnUse"
       gradientTransform="matrix(40.746582,0,0,-11.314162,198.66016,163.24316)"
       spreadMethod="pad"
       id="radialGradient3076"><stop
         style="stop-opacity:1;stop-color:#231f20"
         offset="0"
         id="stop3078" /><stop
         style="stop-opacity:1;stop-color:#ffffff"
         offset="1"
         id="stop3080" /></radialGradient><clipPath
       clipPathUnits="userSpaceOnUse"
       id="clipPath3104"><path
         d="m 175.682,169.624 45.957,0 0,-12.761 -45.957,0 0,12.761 z"
         id="path3106"
         inkscape:connector-curvature="0" /></clipPath><clipPath
       clipPathUnits="userSpaceOnUse"
       id="clipPath3108"><path
         d="m 221.639,163.242 c 0,-3.522 -10.285,-6.379 -22.979,-6.379 -12.691,0 -22.978,2.857 -22.978,6.379 0,3.526 10.287,6.382 22.978,6.382 12.694,0 22.979,-2.856 22.979,-6.382"
         id="path3110"
         inkscape:connector-curvature="0" /></clipPath><clipPath
       clipPathUnits="userSpaceOnUse"
       id="clipPath3112"><path
         d="m -32768,32767 65535,0 0,-65535 -65535,0 0,65535 z"
         id="path3114"
         inkscape:connector-curvature="0" /></clipPath><radialGradient
       fx="0"
       fy="0"
       cx="0"
       cy="0"
       r="1"
       gradientUnits="userSpaceOnUse"
       gradientTransform="matrix(22.978418,0,0,-6.3804502,198.66016,163.24316)"
       spreadMethod="pad"
       id="radialGradient3116"><stop
         style="stop-opacity:1;stop-color:#ffffff"
         offset="0"
         id="stop3118" /><stop
         style="stop-opacity:0;stop-color:#ffffff"
         offset="0.822086"
         id="stop3120" /><stop
         style="stop-opacity:0;stop-color:#ffffff"
         offset="1"
         id="stop3122" /></radialGradient><mask
       maskUnits="userSpaceOnUse"
       x="0"
       y="0"
       width="1"
       height="1"
       id="mask3124"><g
         id="g3126"><g
           clip-path="url(#clipPath3112)"
           id="g3128"><g
             id="g3130"><g
               id="g3132"><path
                 d="m -32768,32767 65535,0 0,-65535 -65535,0 0,65535 z"
                 style="fill:url(#radialGradient3116);stroke:none"
                 id="path3134"
                 inkscape:connector-curvature="0" /></g></g></g></g></mask><radialGradient
       fx="0"
       fy="0"
       cx="0"
       cy="0"
       r="1"
       gradientUnits="userSpaceOnUse"
       gradientTransform="matrix(22.978418,0,0,-6.3804502,198.66016,163.24316)"
       spreadMethod="pad"
       id="radialGradient3136"><stop
         style="stop-opacity:1;stop-color:#231f20"
         offset="0"
         id="stop3138" /><stop
         style="stop-opacity:1;stop-color:#d8d7d7"
         offset="0.822086"
         id="stop3140" /><stop
         style="stop-opacity:1;stop-color:#ffffff"
         offset="1"
         id="stop3142" /></radialGradient><clipPath
       clipPathUnits="userSpaceOnUse"
       id="clipPath3174"><path
         d="m 0,495.05 1399.855,0 0,-495.05 L 0,0 0,495.05 z"
         id="path3176"
         inkscape:connector-curvature="0" /></clipPath><radialGradient
       inkscape:collect="always"
       xlink:href="#radialGradient3076"
       id="radialGradient3638"
       gradientUnits="userSpaceOnUse"
       gradientTransform="matrix(40.746582,0,0,-11.314162,198.66016,163.24316)"
       spreadMethod="pad"
       cx="0"
       cy="0"
       fx="0"
       fy="0"
       r="1" /><radialGradient
       inkscape:collect="always"
       xlink:href="#radialGradient3136"
       id="radialGradient3640"
       gradientUnits="userSpaceOnUse"
       gradientTransform="matrix(22.978418,0,0,-6.3804502,198.66016,163.24316)"
       spreadMethod="pad"
       cx="0"
       cy="0"
       fx="0"
       fy="0"
       r="1" /></defs><sodipodi:namedview
     pagecolor="#ffffff"
     bordercolor="#666666"
     borderopacity="1"
     objecttolerance="10"
     gridtolerance="10"
     guidetolerance="10"
     inkscape:pageopacity="0"
     inkscape:pageshadow="2"
     inkscape:window-width="1918"
     inkscape:window-height="1010"
     id="namedview3022"
     showgrid="false"
     inkscape:zoom="0.66434277"
     inkscape:cx="1025.5186"
     inkscape:cy="268.95781"
     inkscape:window-x="0"
     inkscape:window-y="0"
     inkscape:window-maximized="1"
     inkscape:current-layer="g3028" /><g
     id="g3028"
     inkscape:groupmode="layer"
     inkscape:label="Logo_Fablab_Torino_cutout_text (1)"
     transform="matrix(1.25,0,0,-1.25,0,300)"><g
       id="g3584"
       transform="translate(-122.82816,-113.07704)"><g
         transform="translate(257.0625,274.6719)"
         id="g3030"><path
           inkscape:connector-curvature="0"
           id="path3032"
           style="fill:#349eb2;fill-opacity:1;fill-rule:nonzero;stroke:none"
           d="m 0,0 -5.506,12.693 -2.047,-0.192 -15.511,-1.46 -7.418,7.182 0.572,17.772 -12.877,5.078 -1.317,-1.584 -9.925,-11.999 -10.328,-0.172 -12.172,12.971 -12.684,-5.503 0.186,-2.056 1.463,-15.508 -7.172,-7.419 -17.778,0.561 -5.084,-12.866 1.59,-1.309 11.996,-9.943 0.174,-10.317 -12.975,-12.168 5.506,-12.697 2.049,0.196 15.52,1.462 7.418,-7.182 -0.563,-17.767 12.862,-5.088 1.308,1.586 9.94,12 10.33,0.175 12.16,-12.972 12.693,5.507 -0.187,2.048 -1.463,15.512 7.176,7.424 17.773,-0.575 5.084,12.875 -1.588,1.31 -12.002,9.934 -0.172,10.327 L 0,0 z" /></g><g
         id="g3034"><g
           clip-path="url(#clipPath3038)"
           id="g3036"><g
             id="g3042"><g
               id="g3044" /><g
               id="g3082"><g
                 style="opacity:0.25"
                 id="g3084"
                 clip-path="url(#clipPath3046)"><g
                   id="g3086"><g
                     id="g3088"
                     clip-path="url(#clipPath3050)"><g
                       id="g3090"><g
                         id="g3092" /><g
                         id="g3094"
                         mask="url(#mask3064)"><g
                           id="g3096"><path
                             inkscape:connector-curvature="0"
                             id="path3098"
                             style="fill:url(#radialGradient3638);stroke:none"
                             d="m 239.408,163.241 c 0,-6.245 -18.24,-11.311 -40.746,-11.311 -22.508,0 -40.75,5.066 -40.75,11.311 0,6.253 18.242,11.317 40.75,11.317 22.506,0 40.746,-5.064 40.746,-11.317" /></g></g></g></g></g></g></g></g><g
             id="g3100"><g
               id="g3102" /><g
               id="g3144"><g
                 style="opacity:0.14999402"
                 id="g3146"
                 clip-path="url(#clipPath3104)"><g
                   id="g3148"><g
                     id="g3150"
                     clip-path="url(#clipPath3108)"><g
                       id="g3152"><g
                         id="g3154" /><g
                         id="g3156"
                         mask="url(#mask3124)"><g
                           id="g3158"><path
                             inkscape:connector-curvature="0"
                             id="path3160"
                             style="fill:url(#radialGradient3640);stroke:none"
                             d="m 221.639,163.242 c 0,-3.522 -10.285,-6.379 -22.979,-6.379 -12.691,0 -22.978,2.857 -22.978,6.379 0,3.526 10.287,6.382 22.978,6.382 12.694,0 22.979,-2.856 22.979,-6.382" /></g></g></g></g></g></g></g></g></g></g><g
         transform="translate(327.7432,310.5078)"
         id="g3162"><path
           inkscape:connector-curvature="0"
           id="path3164"
           style="fill:#349eb2;fill-opacity:1;fill-rule:nonzero;stroke:none"
           d="m 0,0 0,-4.173 -33.821,0 0,-23.389 30.691,0 0,-4.085 -30.691,0 0,-24.867 -4.435,0 0,56.514 L 0,0 z" /></g><g
         transform="translate(359.3887,305.3779)"
         id="g3166"><path
           inkscape:connector-curvature="0"
           id="path3168"
           style="fill:#349eb2;fill-opacity:1;fill-rule:nonzero;stroke:none"
           d="m 0,0 -11.042,-31.213 22.084,0 L 0,0 z m -22.519,-51.384 20.52,56.514 4.347,0 20.606,-56.514 -4.695,0 -5.825,16.259 -24.867,0 -5.738,-16.259 -4.348,0 z" /></g><g
         transform="translate(398.1641,281.2949)"
         id="g3178"><path
           inkscape:connector-curvature="0"
           id="path3180"
           style="fill:#349eb2;fill-opacity:1;fill-rule:nonzero;stroke:none"
           d="m 0,0 0,-23.127 14.607,0 c 10.433,0 14.781,3.304 14.781,11.39 C 29.388,-3.652 23.823,0 13.824,0 L 0,0 z M 13.303,25.04 0,25.04 0,3.912 l 12.868,0 c 6.956,0 12.434,4.348 12.434,11.042 0,6.869 -3.653,10.086 -11.999,10.086 m 1.218,-52.341 -18.955,0 0,56.514 17.997,0 c 11.564,0 16.433,-4.781 16.433,-14.172 0,-5.217 -2.869,-9.911 -8.347,-12.085 l 0,-0.174 c 9.652,-1.826 12.434,-8.173 12.434,-14.432 0,-9.826 -5.651,-15.651 -19.562,-15.651" /></g><g
         transform="translate(451.46,310.5078)"
         id="g3182"><path
           inkscape:connector-curvature="0"
           id="path3184"
           style="fill:#349eb2;fill-opacity:1;fill-rule:nonzero;stroke:none"
           d="m 0,0 0,-52.34 31.995,0 0,-4.174 -36.43,0 L -4.435,0 0,0 z" /></g><g
         transform="translate(515.8838,305.3779)"
         id="g3186"><path
           inkscape:connector-curvature="0"
           id="path3188"
           style="fill:#349eb2;fill-opacity:1;fill-rule:nonzero;stroke:none"
           d="m 0,0 -11.042,-31.213 22.084,0 L 0,0 z m -22.519,-51.384 20.52,56.514 4.347,0 20.606,-56.514 -4.695,0 -5.825,16.259 -24.867,0 -5.738,-16.259 -4.348,0 z" /></g><g
         transform="translate(554.6592,281.2949)"
         id="g3190"><path
           inkscape:connector-curvature="0"
           id="path3192"
           style="fill:#349eb2;fill-opacity:1;fill-rule:nonzero;stroke:none"
           d="m 0,0 0,-23.127 14.607,0 c 10.433,0 14.781,3.304 14.781,11.39 C 29.388,-3.652 23.823,0 13.824,0 L 0,0 z M 13.303,25.04 0,25.04 0,3.912 l 12.868,0 c 6.956,0 12.434,4.348 12.434,11.042 0,6.869 -3.653,10.086 -11.999,10.086 m 1.218,-52.341 -18.955,0 0,56.514 17.997,0 c 11.565,0 16.433,-4.781 16.433,-14.172 0,-5.217 -2.869,-9.911 -8.347,-12.085 l 0,-0.174 c 9.652,-1.826 12.434,-8.173 12.434,-14.432 0,-9.826 -5.651,-15.651 -19.562,-15.651" /></g><g
         transform="translate(330.2646,229.6533)"
         id="g3194"><path
           inkscape:connector-curvature="0"
           id="path3196"
           style="fill:#349eb2;fill-opacity:1;fill-rule:nonzero;stroke:none"
           d="m 0,0 -20.52,0 0,-52.341 -4.433,0 0,52.341 -20.607,0 0,4.173 L 0,4.173 0,0 z" /></g><g
         transform="translate(378.4297,205.4824)"
         id="g3198"><path
           inkscape:connector-curvature="0"
           id="path3200"
           style="fill:#349eb2;fill-opacity:1;fill-rule:nonzero;stroke:none"
           d="m 0,0 c 0,15.129 -4.434,25.04 -18.52,25.04 -14.258,0 -19.126,-9.129 -19.126,-24.953 0,-15.476 4.085,-25.04 18.518,-25.04 C -5.304,-24.953 0,-14.085 0,0 m 4.695,0 c 0,-16.954 -8.781,-29.039 -23.823,-29.039 -16.78,0 -23.214,11.563 -23.214,29.126 0,17.649 7.912,29.04 23.822,29.04 C -1.826,29.127 4.695,17.911 4.695,0" /></g><g
         transform="translate(424.7695,216.7852)"
         id="g3202"><path
           inkscape:connector-curvature="0"
           id="path3204"
           style="fill:#349eb2;fill-opacity:1;fill-rule:nonzero;stroke:none"
           d="m 0,0 c 0,9.564 -4.348,12.868 -14.085,12.868 l -12.433,0 0,-24.779 12.868,0 C -6.086,-11.911 0,-9.216 0,0 m -30.952,17.041 16.519,0 c 13.825,0 19.128,-5.217 19.128,-16.693 0,-7.999 -4.521,-13.302 -11.042,-15.389 l 14.346,-24.432 -5.304,0 -13.65,23.475 -15.563,0 0,-23.475 -4.434,0 0,56.514 z" /></g><g
         transform="translate(445.6348,181.4863)"
         id="g3206"><path
           inkscape:connector-curvature="0"
           id="path3208"
           style="fill:#349eb2;fill-opacity:1;fill-rule:nonzero;stroke:none"
           d="m 0,0 16.085,0 0,48.167 -16.085,0 0,4.173 37.386,0 0,-4.173 -16.867,0 0,-48.167 16.867,0 0,-4.174 L 0,-4.174 0,0 z" /></g><g
         transform="translate(500.3213,177.3125)"
         id="g3210"><path
           inkscape:connector-curvature="0"
           id="path3212"
           style="fill:#349eb2;fill-opacity:1;fill-rule:nonzero;stroke:none"
           d="m 0,0 -4.261,0 0,56.514 4.956,0 30.952,-49.559 0,49.559 4.261,0 L 35.908,0 31.213,0 0,49.819 0,0 z" /></g><g
         transform="translate(587.0898,205.4824)"
         id="g3214"><path
           inkscape:connector-curvature="0"
           id="path3216"
           style="fill:#349eb2;fill-opacity:1;fill-rule:nonzero;stroke:none"
           d="m 0,0 c 0,15.129 -4.434,25.04 -18.52,25.04 -14.258,0 -19.126,-9.129 -19.126,-24.953 0,-15.476 4.085,-25.04 18.518,-25.04 C -5.304,-24.953 0,-14.085 0,0 m 4.695,0 c 0,-16.954 -8.781,-29.039 -23.823,-29.039 -16.78,0 -23.214,11.563 -23.214,29.126 0,17.649 7.912,29.04 23.822,29.04 C -1.826,29.127 4.695,17.911 4.695,0" /></g><g
         transform="translate(213.5352,257.4766)"
         id="g3218"><path
           inkscape:connector-curvature="0"
           id="path3220"
           style="fill:#ffffff;fill-opacity:1;fill-rule:nonzero;stroke:none"
           d="m 0,0 c 3.285,1.896 6.119,1.313 7.443,-1.131 l 7.434,4.291 0,13.092 -29.752,17.176 -11.338,-6.545 7.434,-4.292 c 4.103,0.841 8.859,0.312 12.144,-1.583 4.549,-2.627 4.549,-6.887 -0.002,-9.513 -4.549,-2.628 -11.927,-2.628 -16.478,0 -3.283,1.896 -4.197,4.641 -2.74,7.01 l -7.434,4.292 -11.336,-6.546 -0.002,10e-4 0,-34.355 11.338,-6.545 0,8.584 c -2.779,3.132 -4.701,7.515 -4.701,11.306 0,5.254 3.689,7.385 8.24,4.758 4.549,-2.629 8.238,-9.018 8.238,-14.271 0,-3.791 -1.92,-5.956 -4.701,-5.88 l 0,-8.583 11.338,-6.545 29.752,17.176 0,13.091 -7.434,-4.292 C 6.119,-13.277 3.285,-17.133 0,-19.028 c -4.549,-2.627 -8.238,-0.497 -8.238,4.757 0,5.255 3.689,11.642 8.238,14.271" /></g></g></g></svg>